<?xml version="1.0" encoding="UTF-8" standalone="no"?>

<svg
   xmlns:dc="http://purl.org/dc/elements/1.1/"
   xmlns:rdf="http://www.w3.org/1999/02/22-rdf-syntax-ns#"
   xmlns:svg="http://www.w3.org/2000/svg"
   xmlns="http://www.w3.org/2000/svg"
   xmlns:sodipodi="http://sodipodi.sourceforge.net/DTD/sodipodi-0.dtd"
   xmlns:inkscape="http://www.inkscape.org/namespaces/inkscape"
   fill="#000000"
   height="800px"
   width="800px"
   version="1.1"
   viewBox="0 0 485.32 485.32"
   enable-background="new 0 0 485.32 485.32"
   id="svg7667"
   sodipodi:docname="vscode-openedge-abl-pack.svg"
   inkscape:version="0.92.4 (5da689c313, 2019-01-14)"
   inkscape:export-xdpi="15.360002"
   inkscape:export-ydpi="15.360002">
  <metadata
     id="metadata7673">
    <rdf:RDF>
      <cc:Work
         rdf:about="">
        <dc:format>image/svg+xml</dc:format>
        <dc:type
           rdf:resource="http://purl.org/dc/dcmitype/StillImage" />
        <dc:title></dc:title>
      </cc:Work>
    </rdf:RDF>
  </metadata>
  <defs
     id="defs7671" />
  <sodipodi:namedview
     pagecolor="#ffffff"
     bordercolor="#666666"
     borderopacity="1"
     objecttolerance="10"
     gridtolerance="10"
     guidetolerance="10"
     inkscape:pageopacity="0"
     inkscape:pageshadow="2"
     inkscape:window-width="1982"
     inkscape:window-height="1110"
     id="namedview7669"
     showgrid="false"
     inkscape:zoom="1.5125"
     inkscape:cx="400"
     inkscape:cy="359.07897"
     inkscape:window-x="2946"
     inkscape:window-y="103"
     inkscape:window-maximized="0"
     inkscape:current-layer="svg7667" />
  <g
     id="SVGRepo_bgCarrier"
     stroke-width="0"
     inkscape:export-xdpi="15.360002"
     inkscape:export-ydpi="15.360002" />
  <g
     id="SVGRepo_tracerCarrier"
     stroke-linecap="round"
     stroke-linejoin="round"
     inkscape:export-xdpi="15.360002"
     inkscape:export-ydpi="15.360002" />
  <g
     id="SVGRepo_iconCarrier"
     inkscape:export-xdpi="15.360002"
     inkscape:export-ydpi="15.360002">
    <g
       id="g7664">
      <path
         d="m480.76,79.05c-0.6-0.2-235-78.3-235-78.3-2.1-1-4.1-1-6.2,0l-231.9,76.3c-5.8,2.4-7.2,7.4-7.2,10.3v313.3c0,5.2 3.1,9.3 7.2,10.3l229,73.2c3.5,1.3 7.3,1.8 12.1,0l228.9-73.2c4.1-2.1 7.2-6.2 7.2-10.3v-313.3c5.68434e-14-3.1-1-6.2-4.1-8.3zm-238.1-56.7l198.9,63.9-75.1,24.1-196-64.5 72.2-23.5zm-10.3,438l-211.3-67v-291.4l211.3,67.6v290.8zm10.3-310.2l-198.9-62.8 93.7-30.6 195.3,64.5-90.1,28.9zm10.3,310.2v-291.6l105.1-33.3v32.3l20.6-8.8v-30l85.5-27v290.4h0.1l-211.3,68z"
         id="path7662" />
    </g>
  </g>
  <text
     xml:space="preserve"
     style="font-style:normal;font-variant:normal;font-weight:normal;font-stretch:normal;font-size:87.13111832px;line-height:1.25;font-family:'Bauhaus 93';-inkscape-font-specification:'Bauhaus 93, Normal';font-variant-ligatures:normal;font-variant-caps:normal;font-variant-numeric:normal;font-feature-settings:normal;text-align:start;letter-spacing:0px;word-spacing:0px;writing-mode:lr;text-anchor:start;fill:#55d400;fill-opacity:1;stroke:none;stroke-width:2.17831755;"
     x="58.277687"
     y="244.73039"
     id="text7677"
     transform="scale(0.94899512,1.0537462)"
     inkscape:export-xdpi="15.360002"
     inkscape:export-ydpi="15.360002"><tspan
       sodipodi:role="line"
       id="tspan7707">OpenEdge</tspan><tspan
       sodipodi:role="line"
       id="tspan7709">  ABL  Pack</tspan></text>
  <path
     style="fill:#ffffff;stroke-width:0.66115701"
     d="M 208.17832,703.08821 C 113.11276,672.92272 35.236323,648.14634 35.119568,648.02958 35.002812,647.91283 34.982071,539.97798 35.073477,408.17436 l 0.166192,-239.64294 173.719721,55.56671 173.71971,55.56671 -0.166,34.99142 -0.16599,34.99142 -3.33319,0.75062 c -10.47467,2.35885 -19.39922,11.6221 -22.39627,23.24626 -0.86142,3.34103 -1.0474,8.30124 -1.0474,27.93389 v 23.87151 h 12.53727 12.53727 l 0.19,-22.77762 c 0.14289,-17.12928 0.39494,-22.98237 1.01645,-23.60331 0.66116,-0.66054 0.82645,37.15158 0.82645,189.05862 0,151.4873 -0.16712,189.87647 -0.82645,189.8456 -0.45455,-0.0213 -78.60736,-24.71955 -173.67292,-54.88504 z M 193.58678,602.64004 v -11.90082 h 3.96694 3.96694 V 577.1855 563.63178 h -4.06597 -4.06597 l 0.37084,-8.84482 c 0.49223,-11.73988 1.43829,-13.63452 6.8082,-13.63452 1.71001,0 2.52398,0.426 3.417,1.78833 1.07853,1.64532 1.18726,4.57958 1.35982,36.69421 l 0.18756,34.90589 h 13.91777 13.91778 l -0.30212,-37.85124 c -0.2558,-32.05059 -0.46827,-38.54868 -1.38638,-42.40226 -3.79187,-15.91568 -13.58657,-23.56702 -30.13215,-23.53838 -10.34676,0.0179 -17.9317,2.7546 -24.28307,8.76145 -4.11929,3.89586 -6.73764,8.22449 -8.89178,14.69985 -1.52922,4.59684 -1.54102,4.88375 -1.7465,42.47934 l -0.20688,37.85124 h 13.58399 13.58398 z m 82.64462,-25.12396 v -37.0248 h 2.87655 c 5.54538,0 8.36312,1.82926 8.36312,5.42926 0,2.5464 -1.80592,4.44408 -4.66415,4.90113 l -2.60857,0.41713 v 13.79979 13.7998 h 4.6281 c 5.28006,0 7.27272,1.23998 7.27272,4.52563 0,3.02208 -2.06247,4.32387 -7.32129,4.62102 l -4.57953,0.25876 v 13.14854 13.14853 l 5.45454,-0.0115 c 6.02915,-0.0127 13.14388,-1.29872 16.34612,-2.95467 1.14399,-0.59157 3.27747,-2.15745 4.74106,-3.47972 6.38534,-5.76877 9.26228,-12.78395 9.27504,-22.61637 0.014,-10.81919 -3.55584,-18.60867 -10.62865,-23.19169 l -3.34685,-2.16869 2.59172,-2.81169 c 7.65941,-8.30947 9.26554,-21.08912 3.99578,-31.79353 -2.94351,-5.97911 -7.48975,-9.27738 -15.33813,-11.1277 -3.19683,-0.75368 -8.81415,-0.98421 -24.16501,-0.99171 l -20,-0.01 v 50.57852 50.57851 h 13.55372 13.55371 z m 87.27273,22.24085 v -14.78394 l -3.38941,-0.40142 c -4.38902,-0.51982 -6.29957,-1.8288 -7.15261,-4.90048 -0.43546,-1.56804 -0.69163,-14.26176 -0.69396,-34.38642 l -0.004,-31.90083 H 338.33999 324.4155 l 0.24065,36.85951 c 0.21204,32.47648 0.37645,37.33122 1.38263,40.82644 4.54613,15.79206 14.62906,23.32876 31.34965,23.43296 l 6.1157,0.0381 z M 224.79129,419.33426 c 0.19198,-30.66968 0.3025,-33.44006 1.43797,-36.04544 1.76728,-4.05509 3.82177,-5.44217 8.06076,-5.44217 3.04609,0 3.79789,0.28084 5.79561,2.16492 5.73423,5.40808 3.76345,15.56464 -3.43887,17.72251 -2.38155,0.71353 -3.66699,0.4163 -8.19628,-1.89524 -0.27951,-0.14265 -0.42827,6.68464 -0.33058,15.17175 l 0.17762,15.4311 4.95868,0.21512 c 9.79452,0.4249 17.2729,-2.58493 24.4892,-9.85619 7.78712,-7.84643 11.43341,-17.00123 11.43341,-28.70603 0,-11.28117 -3.06967,-19.44669 -10.15999,-27.02626 -6.59376,-7.04876 -11.87313,-9.81276 -21.13661,-11.06599 -13.50062,-1.82648 -27.94275,6.3951 -34.02296,19.36849 -4.11886,8.78843 -4.32206,11.09726 -4.32206,49.10911 v 34.07746 h 12.52307 12.52307 z m -70.55466,7.02237 c 13.08993,-3.38423 24.462,-13.44826 31.09922,-27.52212 3.38825,-7.18456 4.38102,-11.7085 4.76388,-21.70826 0.53403,-13.94833 -1.81404,-23.15501 -8.52878,-33.44096 -6.07213,-9.30158 -14.41762,-16.1877 -24.18811,-19.95837 -4.10535,-1.58435 -5.24014,-1.71803 -14.37458,-1.69342 -8.98302,0.0242 -10.37423,0.1898 -14.76688,1.75757 -7.2767,2.5971 -11.74375,5.52325 -17.96,11.76474 -11.320381,11.36635 -16.841651,26.61917 -15.598199,43.09091 1.077474,14.27306 5.793299,24.94878 15.482249,35.04887 11.74698,12.24544 27.81925,16.86278 44.0712,12.66104 z m 167.73283,-1.39608 c 4.1691,-1.51114 11.12145,-5.85932 11.12145,-6.95564 0,-0.50549 -10.3962,-14.94562 -13.60904,-18.90271 -0.10362,-0.12763 -1.30049,0.61617 -2.65971,1.65289 -4.87417,3.71771 -9.75425,2.19165 -13.00066,-4.06546 -2.85754,-5.50762 -2.1164,-17.06608 1.35792,-21.17736 3.0369,-3.59368 8.12705,-4.76402 11.23923,-2.58416 1.46347,1.02506 3.44912,4.21838 3.44912,5.54687 0,0.43524 -2.31306,0.69399 -6.20388,0.69399 -7.18627,0 -6.9947,-0.20179 -7.01024,7.38394 -0.0146,7.11218 -1.88724,6.50036 19.89643,6.50036 h 19.10281 v -5.51408 c 0,-11.1245 -3.87331,-20.82251 -11.29674,-28.2848 -7.64237,-7.68239 -17.50611,-10.94165 -28.11975,-9.29158 -7.54068,1.17232 -12.86044,3.99458 -18.79181,9.96951 -8.53441,8.59708 -11.61732,17.14081 -10.99705,30.47632 0.19451,4.18182 0.81044,9.03038 1.36872,10.7746 3.87252,12.09865 13.74605,21.81301 25.09143,24.68693 4.86327,1.23193 14.41035,0.77634 19.06177,-0.90962 z"
     id="path7711"
     inkscape:connector-curvature="0"
     transform="scale(0.60665)"
     inkscape:export-xdpi="15.360002"
     inkscape:export-ydpi="15.360002" />
  <path
     style="fill:#ffffff;stroke-width:0.66115701"
     d="m 136.99736,396.47454 c -15.10518,-5.22156 -19.07105,-27.9886 -6.86436,-39.40654 4.05818,-3.79595 7.20922,-5.08292 12.45352,-5.08636 18.3987,-0.0121 26.62384,25.88441 12.65729,39.85095 -5.56712,5.56713 -11.32935,7.03306 -18.24645,4.64195 z"
     id="path7713"
     inkscape:connector-curvature="0"
     transform="scale(0.60665)"
     inkscape:export-xdpi="15.360002"
     inkscape:export-ydpi="15.360002" />
  <path
     style="fill:#ffffff;stroke-width:0.66115701"
     d="M 236.38703,195.5396 C 147.01808,167.31002 74.125515,144.01848 74.403558,143.78063 75.138579,143.15185 225.46692,94.208398 226.64463,94.21444 c 0.54545,0.0028 33.71901,10.81257 73.71901,24.02171 40,13.20915 111.78099,36.91533 159.51331,52.68041 47.73233,15.76509 86.55877,28.87392 86.28099,29.13072 -0.69728,0.64466 -145.15572,46.8989 -146.33327,46.85455 -0.52175,-0.0196 -74.06869,-23.13265 -163.43764,-51.36223 z"
     id="path7715"
     inkscape:connector-curvature="0"
     transform="scale(0.60665)"
     inkscape:export-xdpi="15.360002"
     inkscape:export-ydpi="15.360002" />
  <path
     style="fill:#ffffff;stroke-width:0.66115701"
     d="m 443.37646,128.70023 c -87.88841,-28.96947 -159.9532,-52.835728 -160.144,-53.036136 -0.19079,-0.200408 26.0173,-8.941475 58.24021,-19.424596 l 58.58709,-19.060219 116.76351,37.512938 c 64.21993,20.632117 137.66076,44.227993 163.20185,52.435283 25.54109,8.20729 46.35227,15.00843 46.24706,15.11364 -0.3623,0.36229 -121.90388,39.2418 -122.50083,39.18636 -0.32879,-0.0306 -72.50649,-23.75781 -160.39489,-52.72727 z"
     id="path7717"
     inkscape:connector-curvature="0"
     transform="scale(0.60665)"
     inkscape:export-xdpi="15.360002"
     inkscape:export-ydpi="15.360002" />
  <path
     style="fill:#ffffff;stroke-width:0.66115701"
     d="m 417.22224,518.44554 0.16619,-240.06143 85.95041,-27.23166 85.95042,-27.23167 0.17278,26.38443 c 0.095,14.51143 0.40112,26.38442 0.68017,26.38442 0.27907,0 8.08561,-3.22401 17.34788,-7.16446 l 16.84049,-7.16445 0.17314,-24.7972 0.17313,-24.7972 68.5872,-21.69023 c 37.72295,-11.92962 69.25661,-21.82949 70.07479,-21.99971 l 1.48761,-0.3095 -0.005,238.92005 -0.005,238.92005 -148.92092,47.90943 c -81.90651,26.35019 -160.15273,51.52768 -173.8805,55.95 l -24.95958,8.04057 z m 135.3728,82.80145 c 0,-13.66517 -0.0753,-14.58446 -1.15702,-14.12857 -0.63637,0.26819 -2.71731,0.63425 -4.62433,0.81346 -3.32922,0.31285 -3.57058,0.22254 -6.06086,-2.26774 -4.41173,-4.41173 -4.47297,-10.26897 -0.15576,-14.89725 3.09148,-3.31423 7.08463,-4.04262 10.47827,-1.91133 4.33152,2.7203 4.47288,3.49344 4.69594,25.68531 l 0.20103,20 h 12.92173 12.92173 l -0.29629,-22.64463 c -0.32821,-25.08558 -0.52843,-26.54469 -4.85951,-35.41489 -4.01984,-8.23277 -11.03685,-14.00925 -19.8169,-16.31349 -5.73313,-1.5046 -14.83531,-1.37153 -20.21492,0.29553 -11.77819,3.6499 -21.27562,14.71248 -23.98178,27.9339 -5.16829,25.25065 10.61371,47.38402 33.83297,47.44882 l 6.1157,0.0171 z m 83.88436,13.37057 c 5.78908,-1.80176 9.20328,-4.02858 14.01187,-9.13887 6.06895,-6.44972 9.82293,-14.90562 10.65284,-23.99567 l 0.21126,-2.31405 -6.94215,0.17956 c -3.81818,0.0988 -9.47107,0.35127 -12.56198,0.56113 l -5.61984,0.38156 -1.24031,2.63974 c -1.72808,3.67782 -4.53252,5.30949 -8.53332,4.96483 -5.2056,-0.44844 -8.59708,-4.67358 -8.59708,-10.71029 0,-6.44701 3.41292,-10.24794 9.20178,-10.24794 3.08814,0 3.86523,0.28588 6.02653,2.21704 l 2.48125,2.21704 12.51507,-0.57233 c 6.88328,-0.31478 12.57555,-0.64302 12.64948,-0.72943 0.0739,-0.0864 -0.28187,-1.79347 -0.79067,-3.79347 -1.48531,-5.8385 -4.70344,-11.67466 -8.92736,-16.19005 -7.45286,-7.96712 -14.24248,-11.04369 -24.37214,-11.04369 -10.15838,0 -16.91607,3.07313 -24.43691,11.11292 -5.93052,6.33975 -8.69253,12.27528 -9.93509,21.35042 -0.86705,6.33258 0.003,14.79305 2.10106,20.42751 4.15385,11.15619 13.38111,20.11311 23.6759,22.98224 4.66279,1.29951 13.76983,1.15216 18.42981,-0.2982 z M 466.12649,579.66484 c 0.20137,-37.44448 0.21182,-37.5581 3.59736,-39.10065 2.40888,-1.09756 4.47454,-0.8928 6.41839,0.63624 1.45119,1.1415 1.74206,1.90201 1.74206,4.55485 0,4.14034 -1.43423,5.93915 -5.13073,6.43495 l -2.80316,0.37599 v 13.46666 13.46667 h 5.48093 c 9.75454,0 17.14051,-2.8073 22.5216,-8.56012 9.31564,-9.95918 11.15121,-28.1927 4.24948,-42.21209 -2.61696,-5.31579 -8.94669,-11.93168 -13.73961,-14.36076 -13.15589,-6.66746 -28.70608,-4.05669 -39.34487,6.60572 -4.76634,4.77693 -7.18105,9.08499 -8.93404,15.93911 -1.22499,4.78965 -1.30787,7.41139 -1.30787,41.37158 v 36.25788 h 13.53146 13.53145 z m 231.31414,10.57851 c 0.0459,-21.39134 0.1598,-23.98121 0.95185,-21.65289 0.49481,1.45454 4.05542,12.38843 7.91248,24.29752 l 7.01283,21.65289 h 13.8535 c 7.88097,0 13.8535,-0.25937 13.8535,-0.60162 0,-0.3309 -3.99598,-10.92703 -8.87995,-23.54696 l -8.87995,-22.94534 5.90474,-12.95015 c 3.24761,-7.12258 5.90475,-13.18761 5.90475,-13.47784 0,-0.29022 -5.87619,-0.52768 -13.05821,-0.52768 h -13.0582 l -5.61948,12.72052 -5.61948,12.72052 -0.17287,-26.27424 -0.17288,-26.27424 h -12.88498 -12.88497 v 50.57852 50.57851 h 12.89256 12.89256 z M 611.49918,458.17856 c 7.37475,-2.08864 13.62949,-6.80342 18.3108,-13.80255 7.33143,-10.9614 8.26861,-16.29382 7.89778,-44.93702 -0.31229,-24.12123 -0.58511,-26.09511 -4.67009,-33.78828 -4.17572,-7.86406 -11.62728,-13.20154 -21.26907,-15.23485 -5.80208,-1.22357 -8.0889,-1.22326 -13.87277,0.002 -6.35331,1.34578 -10.97264,3.76355 -15.77228,8.25527 -4.8036,4.49543 -8.51427,10.44004 -10.52387,16.85958 -1.89599,6.05662 -2.01376,17.23775 -0.24336,23.10593 4.92479,16.32378 17.91685,25.96631 31.63462,23.47881 6.93709,-1.25802 6.46361,-0.17107 6.46361,-14.83815 v -12.83491 l -2.02621,0.70633 c -4.66064,1.62471 -9.90269,-1.25792 -11.22629,-6.1734 -2.27213,-8.43801 6.95692,-15.99599 13.15956,-10.77681 3.13589,2.63867 3.55754,6.02345 3.29163,26.42302 -0.22058,16.92189 -0.31122,18.02209 -1.74095,21.13287 -1.9323,4.20427 -3.15614,5.54804 -6.41642,7.04516 -4.10052,1.88297 -8.15861,1.58609 -14.38017,-1.05203 -1.07914,-0.45759 -1.15702,0.37706 -1.15702,12.39927 v 12.88988 l 4.13223,1.0564 c 2.27273,0.58102 4.87603,1.17151 5.78512,1.3122 2.51123,0.38863 9.21734,-0.26412 12.62315,-1.2287 z m -77.11343,-32.41864 c 12.076,-3.14541 20.88411,-12.14332 24.90203,-25.43863 1.46112,-4.83486 1.50298,-5.81674 1.74087,-40.83616 l 0.24375,-35.88219 -12.76843,0.17971 -12.76843,0.17971 -0.33058,34.04958 c -0.3561,36.67795 -0.29036,36.01158 -3.87242,39.25331 -1.96649,1.77964 -6.51419,2.07995 -9.35072,0.61747 -2.64383,-1.36312 -5.29758,-5.94227 -5.27474,-9.10178 0.0227,-3.14396 2.30836,-7.45189 4.74043,-8.93468 2.77367,-1.69106 5.56148,-1.69485 8.32275,-0.0113 1.63499,0.99685 2.24834,1.11441 2.49265,0.47775 0.17822,-0.46444 0.24368,-7.37614 0.14544,-15.35932 l -0.1786,-14.51489 -3.25078,-0.5446 c -4.81557,-0.80676 -11.80957,0.46873 -17.31661,3.15799 -9.23001,4.50732 -17.46907,15.53469 -19.76028,26.44767 -3.53274,16.82634 3.57204,34.40154 17.23223,42.62768 7.10592,4.27917 17.03924,5.7196 25.05144,3.63269 z m 157.35973,-0.001 c 4.36007,-1.13565 9.17901,-3.57371 12.20799,-6.17642 l 2.01998,-1.73552 -6.93071,-9.19466 c -3.81188,-5.05707 -7.06979,-9.33376 -7.23978,-9.50376 -0.17001,-0.17 -1.23716,0.47182 -2.37145,1.42626 -2.39442,2.01478 -4.60982,2.70422 -6.86816,2.13742 -8.87775,-2.22817 -11.29888,-20.71505 -3.70718,-28.30674 2.19537,-2.19538 2.89873,-2.50893 5.62803,-2.50893 2.66568,0 3.44589,0.32678 5.36704,2.24793 1.23636,1.23637 2.24793,2.87273 2.24793,3.63637 0,1.30694 -0.34694,1.38843 -5.91139,1.38843 -3.47835,0 -6.09099,0.2906 -6.34776,0.70605 -0.71699,1.16011 -1.16903,8.24159 -0.68933,10.79863 l 0.44642,2.37962 h 19.14359 19.1436 v -6.14209 c 0,-10.9305 -3.24626,-19.39633 -10.30812,-26.88228 -18.05765,-19.14206 -48.99614,-10.93234 -57.16509,15.16913 -2.93495,9.37777 -2.1761,22.51903 1.78372,30.88941 7.39474,15.63119 23.77781,23.77965 39.55067,19.67134 z M 481.6986,410.73955 481.52066,396.0288 469.61983,395.69822 c -6.54545,-0.18181 -12.2372,-0.54932 -12.64832,-0.81667 -1.79557,-1.16765 -1.3634,-6.65665 0.62357,-7.92008 0.4318,-0.27456 5.6198,-0.50376 11.52889,-0.50932 l 10.7438,-0.0101 v -11.5096 -11.50961 l -9.97663,-0.22593 c -9.55493,-0.21638 -10.03001,-0.29191 -11.23967,-1.78678 -1.60668,-1.98552 -1.60689,-4.14853 -5.8e-4,-6.1345 1.22114,-1.50977 1.62177,-1.56772 12.24393,-1.7708 l 10.98148,-0.20994 -0.17782,-14.66609 -0.17782,-14.66608 -10.57851,-0.20094 c -20.38415,-0.38718 -27.96784,1.54404 -34.6123,8.81413 -3.6364,3.9788 -5.62063,8.42965 -6.68668,14.99896 -0.87416,5.38679 -0.87763,48.47364 -0.004,54.0738 0.88383,5.66784 4.53837,13.06919 7.99518,16.19221 3.41735,3.08737 9.70859,6.06839 14.46518,6.85415 2,0.33039 9.51809,0.63549 16.70687,0.678 l 13.07051,0.0773 z"
     id="path7719"
     inkscape:connector-curvature="0"
     transform="scale(0.60665)"
     inkscape:export-xdpi="15.360002"
     inkscape:export-ydpi="15.360002" />
</svg>
